REM MD5 28636f83b992f3e691e4a94e18bd6f22
FILE "PlayStation Underground 3.4 (USA) (Disc 2).bin" BINARY
  TRACK 01 MODE2/2352
    INDEX 01 00:00:00
  TRACK 02 AUDIO
    INDEX 00 66:43:32
    INDEX 01 66:45:32
  TRACK 03 AUDIO
    INDEX 00 70:15:33
    INDEX 01 70:17:33
REM LEADOUT 70:23:29
